{"glyphs":{":":{"x_min":0,"x_max":271,"ha":271,"o":"m 87 625 l 177 625 l 177 512 l 87 512 z m 87 265 l 177 265 l 177 152 l 87 152 z"},"$":{"x_min":0,"x_max":420,"ha":420,"o":"m 59 575 q 59 656 98 698 q 123 725 160 735 l 160 859 l 212 859 l 212 740 q 275 737 306 685 q 336 632 336 505 l 336 466 l 261 466 l 261 519 q 261 596 247 635 q 234 673 200 673 q 167 673 150 651 q 132 629 132 571 q 132 486 212 409 l 250 372 q 347 275 347 158 q 347 80 315 37 q 283 -6 222 -10 l 222 -132 l 170 -132 l 170 -7 q 125 3 99 39 q 63 88 63 195 q 63 196 63 198 l 63 261 l 138 261 l 138 210 q 138 56 205 56 q 241 56 256 79 q 271 103 271 162 q 271 250 195 328 l 157 367 q 59 467 59 575 z"},"?":{"x_min":0,"x_max":346,"ha":346,"o":"m 111 146 l 172 146 l 172 0 l 111 0 z m 77 667 l 77 721 q 77 723 77 724 q 77 789 94 819 q 123 870 180 870 q 237 870 253 857 q 269 844 277 836 q 304 809 304 675 l 304 642 q 304 512 276 449 q 247 387 172 366 l 172 241 l 111 241 l 111 396 q 153 411 188 439 q 205 454 222 505 q 231 535 231 669 l 231 673 q 231 760 226 784 q 220 808 192 808 q 163 808 157 784 q 150 759 150 671 l 150 566 l 77 566 z"},"<":{"x_min":0,"x_max":356,"ha":356,"o":"m 31 402 l 313 595 l 313 513 l 85 370 l 313 219 l 313 141 l 31 336 z"},"'":{"x_min":0,"x_max":197,"ha":197,"o":"m 61 860 l 138 860 l 106 549 l 90 549 z"},"=":{"x_min":0,"x_max":353,"ha":353,"o":"m 51 358 l 302 358 l 302 293 l 51 293 z m 51 500 l 302 500 l 302 436 l 51 436 z"},"a":{"x_min":0,"x_max":427,"ha":427,"o":"m 79 513 q 79 593 83 616 q 88 639 93 656 q 98 674 105 685 q 112 696 123 708 q 133 720 147 726 q 161 733 179 737 q 197 741 220 741 q 242 741 260 737 q 278 733 292 729 q 306 724 316 711 q 326 699 333 689 q 356 658 356 509 l 356 0 l 283 0 l 283 55 q 277 35 252 15 q 227 -5 187 -5 q 129 -5 100 43 q 70 92 70 184 l 70 278 q 70 328 94 356 q 119 384 136 395 q 183 424 229 444 q 276 464 283 467 l 283 549 q 283 620 278 632 q 272 645 269 653 q 258 677 217 677 q 176 677 164 643 q 152 608 152 512 l 152 494 l 79 494 z m 283 409 q 203 372 190 363 q 178 354 168 344 q 143 318 143 249 l 143 190 q 143 115 154 85 q 166 55 196 55 q 227 55 250 70 q 273 85 283 103 z"},"L":{"x_min":0,"x_max":312,"ha":312,"o":"m 78 859 l 151 859 l 151 58 l 303 58 l 303 0 l 78 0 z"},"3":{"x_min":0,"x_max":364,"ha":364,"o":"m 21 645 q 21 759 55 814 q 89 869 169 869 q 250 869 286 813 q 323 758 323 645 q 323 479 237 446 q 281 427 302 366 q 324 306 324 229 q 324 106 287 48 q 249 -10 168 -10 q 87 -10 53 49 q 19 107 19 231 l 19 252 l 93 252 l 93 231 q 93 122 107 86 q 121 51 168 51 q 216 51 234 90 q 251 128 251 216 q 251 303 240 344 q 229 385 206 401 q 184 417 146 417 l 127 417 l 127 479 l 146 479 q 190 479 208 492 q 227 504 234 522 q 250 562 250 629 q 250 747 227 777 q 204 808 174 808 q 144 808 129 796 q 95 768 95 644 l 95 628 l 21 628 z"},";":{"x_min":0,"x_max":274,"ha":274,"o":"m 88 255 l 186 255 l 186 175 l 135 0 l 98 0 l 145 171 l 88 171 z m 87 625 l 177 625 l 177 512 l 87 512 z"},"J":{"x_min":0,"x_max":390,"ha":390,"o":"m 243 859 l 315 859 l 315 205 q 315 93 285 41 q 254 -10 181 -10 q 107 -10 76 37 q 46 85 46 190 l 46 264 l 120 264 l 120 162 q 120 94 134 75 q 148 56 159 53 q 170 50 183 50 q 235 50 240 118 q 243 146 243 170 z"},"V":{"x_min":0,"x_max":429,"ha":429,"o":"m 328 859 l 398 859 l 259 0 l 184 0 l 31 859 l 101 859 l 221 155 l 221 155 z"},"\"":{"x_min":0,"x_max":461,"ha":461,"o":"m 130 860 l 207 860 l 175 549 l 159 549 z m 261 860 l 338 860 l 306 549 l 290 549 z"},"7":{"x_min":0,"x_max":364,"ha":364,"o":"m 27 860 l 336 860 l 336 808 q 336 808 335 808 q 333 808 311 736 q 288 664 265 574 q 189 273 172 0 l 96 0 q 120 302 193 569 q 233 708 263 777 l 273 803 l 27 803 z"},"S":{"x_min":0,"x_max":388,"ha":388,"o":"m 48 728 q 55 797 89 834 q 123 870 195 870 q 268 870 296 834 q 312 814 320 795 q 339 755 339 606 l 339 558 l 265 558 l 265 612 q 265 725 257 749 q 250 773 242 785 q 228 808 191 808 q 117 808 117 669 q 117 621 126 604 q 136 586 140 577 q 145 567 203 509 l 250 462 q 354 355 354 217 q 354 78 314 34 q 274 -10 196 -10 q 76 -10 58 135 q 51 184 51 255 l 51 345 l 125 345 l 125 257 q 125 141 141 97 q 156 53 204 53 q 251 53 264 81 q 277 110 278 150 q 279 191 279 237 q 279 333 204 407 l 154 454 q 88 518 66 562 q 44 605 44 651 q 44 696 48 728 z"},"}":{"x_min":0,"x_max":390,"ha":390,"o":"m 95 870 l 125 870 q 190 870 213 835 q 236 801 236 705 l 236 570 q 236 492 246 475 q 256 458 272 457 q 288 455 304 455 l 304 356 q 259 356 249 339 q 238 322 237 295 q 236 268 236 240 l 236 106 q 236 10 213 -25 q 190 -59 125 -59 l 95 -59 l 95 8 q 120 8 132 10 q 144 13 151 25 q 159 37 161 56 q 163 75 163 112 l 163 232 q 163 333 175 358 q 188 383 215 395 q 227 399 247 405 q 191 421 177 450 q 163 478 163 578 l 163 698 q 163 736 161 755 q 159 773 151 785 q 144 797 132 800 q 120 803 95 803 z"},"Z":{"x_min":0,"x_max":337,"ha":337,"o":"m 59 859 l 294 859 l 294 810 l 128 58 l 292 58 l 292 0 l 55 0 l 55 61 l 220 803 l 59 803 z"},"x":{"x_min":0,"x_max":327,"ha":327,"o":"m 196 380 l 311 0 l 243 0 l 160 280 l 81 0 l 17 0 l 132 372 l 25 732 l 89 732 l 167 475 l 240 732 l 309 732 z"},")":{"x_min":0,"x_max":253,"ha":253,"o":"m 48 824 l 48 879 q 108 879 131 868 q 153 858 162 845 q 171 832 180 801 q 188 770 188 678 l 188 153 q 188 61 180 30 q 171 -1 162 -14 q 153 -27 131 -38 q 108 -48 48 -48 l 48 7 l 52 7 q 90 7 95 12 q 100 18 104 25 q 116 42 116 143 q 116 147 116 151 l 116 680 q 116 684 116 688 q 116 788 104 806 q 100 813 95 818 q 90 824 62 824 z"},"&":{"x_min":0,"x_max":447,"ha":447,"o":"m 157 724 l 157 704 q 157 651 212 516 q 250 563 270 608 q 290 653 290 709 q 290 765 278 788 q 266 812 220 812 q 161 812 158 744 q 157 733 157 730 q 157 727 157 724 z m 367 178 q 436 33 451 0 l 390 0 q 377 30 338 110 q 314 55 288 31 q 262 7 237 -1 q 211 -10 178 -10 q 111 -10 70 36 q 29 82 29 162 q 29 242 46 281 q 62 319 77 349 q 91 378 167 464 q 86 646 86 705 q 86 870 226 870 q 307 870 333 827 q 358 784 358 707 q 358 630 324 573 q 291 515 239 452 q 274 372 333 250 q 372 333 419 389 l 453 337 q 409 282 367 178 z m 302 184 q 231 327 197 399 q 156 344 130 288 q 104 232 103 160 q 103 51 187 51 q 232 51 264 105 q 279 133 302 184 z"},"_":{"x_min":0,"x_max":365,"ha":365,"o":"m 23 -31 l 341 -31 l 341 -90 l 23 -90 z"},"v":{"x_min":0,"x_max":331,"ha":331,"o":"m 243 732 l 308 732 l 202 0 l 129 0 l 22 732 l 87 732 l 145 305 l 165 126 l 169 126 l 189 305 z"},"O":{"x_min":0,"x_max":433,"ha":433,"o":"m 295 625 q 295 728 280 769 q 265 811 219 811 q 173 811 156 768 q 138 725 138 625 l 138 253 q 138 135 150 102 q 163 68 177 59 q 192 50 217 50 q 241 50 256 59 q 271 68 283 101 q 295 134 295 253 z m 65 619 q 65 775 104 823 q 144 870 225 870 q 306 870 336 817 q 357 782 362 734 q 368 687 368 619 l 368 253 q 368 142 354 96 q 341 50 324 31 q 289 -10 217 -10 q 110 -10 83 83 q 65 143 65 253 z"},"(":{"x_min":0,"x_max":253,"ha":253,"o":"m 196 7 l 206 7 l 206 -48 q 145 -48 123 -38 q 101 -27 92 -14 q 83 -1 74 30 q 65 61 65 153 l 65 678 q 65 770 74 801 q 83 832 92 845 q 101 858 123 868 q 145 879 206 879 l 206 824 l 201 824 q 164 824 159 818 q 154 813 149 806 q 138 788 138 680 l 138 151 q 138 43 149 25 q 154 18 159 12 q 164 7 196 7 z"},"C":{"x_min":0,"x_max":422,"ha":422,"o":"m 65 611 q 65 767 105 819 q 144 870 217 870 q 289 870 320 834 q 343 809 350 783 q 366 724 366 605 l 366 531 l 292 531 l 292 614 q 292 722 280 759 q 269 795 247 805 q 235 811 220 811 q 174 811 156 763 q 138 716 138 614 l 138 270 q 138 145 154 97 q 169 50 216 50 q 263 50 278 97 q 292 145 292 269 l 292 338 l 365 338 l 365 270 q 365 157 353 107 q 340 58 324 36 q 290 -10 218 -10 q 146 -10 110 36 q 65 91 65 269 z"},"W":{"x_min":0,"x_max":653,"ha":653,"o":"m 550 859 l 619 859 l 515 0 l 443 0 l 337 707 l 223 0 l 156 0 l 34 859 l 105 859 l 195 157 l 303 859 l 363 859 l 478 157 z"},"A":{"x_min":0,"x_max":420,"ha":420,"o":"m 166 859 l 240 859 l 393 0 l 322 0 l 294 174 l 122 174 l 96 0 l 27 0 z m 284 234 l 205 721 l 204 721 l 131 234 z"},"f":{"x_min":0,"x_max":298,"ha":298,"o":"m 109 738 q 109 806 133 840 q 157 874 214 874 q 253 874 280 865 l 280 806 q 258 809 230 809 q 203 809 193 795 q 183 780 183 749 l 183 704 l 280 704 l 280 649 l 183 649 l 183 0 l 109 0 l 109 649 l 41 649 l 41 704 l 109 704 z"},"Q":{"x_min":0,"x_max":433,"ha":433,"o":"m 65 619 q 65 775 104 823 q 144 870 228 870 q 324 870 353 782 q 368 736 368 619 l 368 253 q 368 142 350 82 q 330 12 263 -5 l 352 -165 l 304 -190 l 200 -9 q 142 -5 110 31 q 93 50 79 97 q 65 143 65 253 z m 295 625 q 295 728 280 769 q 265 811 219 811 q 173 811 156 768 q 138 725 138 625 l 138 253 q 138 135 150 102 q 163 68 177 59 q 192 50 217 50 q 241 50 256 59 q 271 68 283 101 q 295 134 295 253 z"},"w":{"x_min":0,"x_max":525,"ha":525,"o":"m 432 732 l 497 732 l 412 0 l 339 0 l 268 626 l 183 0 l 114 0 l 28 732 l 95 732 l 139 299 l 150 147 l 156 147 l 171 300 l 232 732 l 294 732 l 361 315 l 381 147 l 386 147 l 396 316 z"},"-":{"x_min":0,"x_max":340,"ha":340,"o":"m 43 468 l 252 468 l 252 419 l 43 419 z"},"E":{"x_min":0,"x_max":346,"ha":346,"o":"m 78 859 l 305 859 l 305 803 l 151 803 l 151 467 l 296 467 l 296 408 l 151 408 l 151 58 l 304 58 l 304 0 l 78 0 z"},"s":{"x_min":0,"x_max":399,"ha":399,"o":"m 59 576 q 59 657 97 699 q 136 741 205 741 q 273 741 305 687 q 336 633 336 506 l 336 467 l 261 467 l 261 520 q 261 597 247 636 q 234 674 200 674 q 167 674 150 652 q 132 630 132 575 q 132 574 132 572 q 132 487 212 410 l 250 373 q 347 276 347 159 q 347 81 313 35 q 279 -10 207 -10 q 135 -10 99 40 q 63 90 63 199 l 63 262 l 138 262 l 138 211 q 138 57 205 57 q 241 57 256 80 q 271 104 271 163 q 271 251 195 329 l 157 368 q 59 468 59 576 z"},">":{"x_min":0,"x_max":356,"ha":356,"o":"m 41 517 l 41 595 l 324 399 l 324 334 l 41 141 l 41 223 l 270 366 z"},"l":{"x_min":0,"x_max":229,"ha":229,"o":"m 78 871 l 151 871 l 151 0 l 78 0 z"},"\\":{"x_min":0,"x_max":424,"ha":424,"o":"m 65 860 l 127 860 l 328 0 l 266 0 z"},"e":{"x_min":0,"x_max":399,"ha":399,"o":"m 268 428 l 268 526 q 268 609 262 634 q 251 677 208 677 q 150 677 140 602 q 135 571 135 526 q 135 522 135 518 l 135 428 z m 62 495 q 62 623 86 671 q 110 719 151 733 q 176 741 208 741 q 240 741 263 733 q 299 722 323 669 q 341 633 341 489 l 341 367 l 135 367 l 135 220 q 135 106 152 81 q 169 55 202 55 q 235 55 248 76 q 262 96 265 129 q 268 161 268 217 l 268 271 l 339 271 l 339 248 q 339 139 332 99 q 313 -9 211 -9 q 122 -9 93 46 q 73 82 68 128 q 62 175 62 250 z"},"b":{"x_min":0,"x_max":428,"ha":428,"o":"m 292 518 q 292 604 284 625 q 277 646 270 657 q 257 677 235 677 q 213 677 202 674 q 176 667 163 632 q 151 598 151 517 l 151 225 q 151 132 166 94 q 181 56 222 56 q 264 56 278 94 q 292 133 292 228 z m 78 871 l 151 871 l 151 670 q 156 699 182 720 q 208 742 238 742 q 326 742 350 647 q 364 586 364 494 l 364 239 q 364 114 345 65 q 326 17 293 3 q 274 -5 249 -5 q 177 -5 151 56 l 151 0 l 78 0 z"},"%":{"x_min":0,"x_max":1049,"ha":1049,"o":"m 889 408 q 889 468 875 489 q 861 510 822 510 q 783 510 769 489 q 755 468 755 408 l 755 164 q 755 101 769 79 q 783 57 822 57 q 861 57 875 79 q 889 101 889 164 z m 683 373 q 683 516 727 551 q 758 576 823 576 q 887 576 918 551 q 961 515 961 373 l 961 201 q 961 137 955 97 q 949 58 932 33 q 916 9 890 0 q 864 -10 822 -10 q 780 -10 754 0 q 729 9 712 33 q 695 58 689 97 q 683 137 683 201 z m 88 666 q 88 810 131 845 q 162 870 226 870 q 291 870 322 845 q 366 810 366 666 l 366 494 q 366 430 360 391 q 354 352 337 327 q 320 302 295 293 q 269 284 227 284 q 185 284 159 293 q 133 302 116 327 q 100 352 94 391 q 88 430 88 494 z m 293 701 q 293 761 280 782 q 266 804 227 804 q 188 804 174 782 q 160 761 160 701 l 160 457 q 160 395 174 373 q 188 351 227 351 q 266 351 280 373 q 293 395 293 457 z m 670 859 l 738 859 l 386 0 l 313 0 z"},"m":{"x_min":0,"x_max":665,"ha":665,"o":"m 519 599 q 519 674 452 674 q 396 674 380 642 q 373 627 371 605 l 371 0 l 298 0 l 298 599 q 298 641 281 657 q 264 674 228 674 q 193 674 172 653 q 151 632 151 590 l 151 0 l 78 0 l 78 732 l 151 732 l 151 660 q 161 693 192 717 q 223 742 263 742 q 336 742 361 667 q 379 701 412 721 q 445 742 489 742 q 533 742 562 705 q 592 668 592 594 l 592 0 l 519 0 z"},"#":{"x_min":0,"x_max":629,"ha":629,"o":"m 348 374 l 374 505 l 267 505 l 241 374 z m 444 860 l 507 860 l 447 556 l 527 556 l 527 508 l 438 508 l 411 375 l 506 375 l 506 327 l 402 327 l 337 0 l 274 0 l 337 327 l 232 327 l 168 0 l 105 0 l 169 327 l 88 327 l 88 375 l 179 375 l 206 508 l 109 508 l 109 556 l 215 556 l 275 860 l 338 860 l 277 556 l 383 556 z"},",":{"x_min":0,"x_max":213,"ha":213,"o":"m 74 84 l 171 84 l 171 4 l 121 -171 l 83 -171 l 130 0 l 74 0 z"},"n":{"x_min":0,"x_max":450,"ha":450,"o":"m 151 661 q 161 693 194 718 q 228 742 273 742 q 318 742 348 704 q 377 667 377 591 l 377 0 l 304 0 l 304 597 q 304 640 285 658 q 266 677 233 677 q 151 677 151 596 l 151 0 l 78 0 l 78 732 l 151 732 z"},"h":{"x_min":0,"x_max":451,"ha":451,"o":"m 245 674 q 151 674 151 582 l 151 0 l 78 0 l 78 871 l 151 871 l 151 661 q 161 693 195 718 q 229 742 274 742 q 319 742 348 704 q 377 667 377 591 l 377 0 l 304 0 l 304 586 q 304 636 287 655 q 270 674 245 674 z"},"z":{"x_min":0,"x_max":310,"ha":310,"o":"m 52 732 l 278 732 l 278 687 l 115 63 l 269 63 l 269 0 l 40 0 l 40 53 l 201 669 l 52 669 z"},"B":{"x_min":0,"x_max":432,"ha":432,"o":"m 206 795 l 151 795 l 151 490 l 216 490 q 250 490 261 498 q 273 505 277 515 q 291 545 291 635 q 291 726 282 750 q 273 774 258 785 q 243 795 206 795 z m 229 432 l 151 432 l 151 62 l 228 62 q 264 62 280 86 q 297 109 300 159 q 303 209 303 244 l 303 285 q 303 357 288 394 q 273 432 229 432 z m 78 859 l 204 859 q 281 859 316 833 q 351 807 359 740 q 363 711 364 667 l 364 656 q 364 572 353 528 q 342 484 309 462 q 347 444 361 389 q 375 335 375 253 l 375 238 q 374 112 343 56 q 313 0 226 0 l 78 0 z"},"K":{"x_min":0,"x_max":404,"ha":404,"o":"m 324 859 l 395 859 l 218 435 l 406 0 l 331 0 l 152 420 l 152 0 l 78 0 l 78 859 l 151 859 l 151 436 z"},"R":{"x_min":0,"x_max":441,"ha":441,"o":"m 304 652 q 304 717 298 747 q 292 777 278 788 q 263 799 232 799 l 150 799 l 150 473 l 227 473 q 264 473 277 485 q 291 498 297 528 q 304 557 304 646 z m 78 859 l 224 859 q 312 859 342 822 q 365 794 371 754 q 377 714 377 637 q 377 561 359 512 q 341 463 298 452 q 315 449 327 441 q 338 434 348 416 q 376 359 376 139 q 376 48 378 34 q 380 20 387 0 l 315 0 q 307 15 306 55 q 304 96 304 186 l 304 280 q 304 370 293 395 q 282 419 228 419 l 151 424 l 151 0 l 78 0 z"},"T":{"x_min":0,"x_max":282,"ha":282,"o":"m 20 859 l 262 859 l 262 803 l 182 803 l 182 0 l 109 0 l 109 803 l 20 803 z"},"P":{"x_min":0,"x_max":412,"ha":412,"o":"m 304 600 l 304 623 q 304 718 289 758 q 275 799 231 799 l 151 799 l 151 398 l 228 398 q 273 398 288 441 q 304 483 304 600 z m 78 859 l 228 859 q 280 859 311 840 q 341 820 352 795 q 369 751 373 710 q 376 668 376 610 l 376 601 q 376 489 363 443 q 349 397 331 377 q 295 336 223 336 l 151 336 l 151 0 l 78 0 z"},"|":{"x_min":0,"x_max":262,"ha":262,"o":"m 97 822 l 172 822 l 172 -41 l 97 -41 z"},"t":{"x_min":0,"x_max":284,"ha":284,"o":"m 95 859 l 168 859 l 168 735 l 255 735 l 255 679 l 168 679 l 168 102 q 168 80 174 72 q 179 63 194 61 q 208 58 254 58 l 254 -4 l 204 -4 q 134 -4 114 20 q 103 34 99 53 q 95 73 95 106 l 95 679 l 22 679 l 22 735 l 95 735 z"},"M":{"x_min":0,"x_max":585,"ha":585,"o":"m 425 859 l 507 859 l 507 0 l 441 0 l 441 368 l 452 714 l 330 19 l 260 19 l 133 714 l 145 368 l 145 0 l 78 0 l 78 859 l 160 859 l 295 138 z"},"g":{"x_min":0,"x_max":420,"ha":420,"o":"m 275 513 q 275 623 258 650 q 240 677 205 677 q 169 677 154 651 q 139 625 136 585 q 134 546 134 514 l 134 298 q 134 204 151 164 q 167 125 212 125 q 235 125 248 138 q 275 165 275 300 z m 275 689 l 275 732 l 348 732 l 348 47 q 348 -62 267 -100 q 235 -115 200 -115 q 166 -115 128 -103 q 90 -91 64 -72 l 92 -16 q 140 -51 200 -51 q 237 -51 256 -27 q 275 -2 275 39 l 275 120 q 260 87 238 74 q 216 62 186 62 q 102 62 77 157 q 62 216 62 309 l 62 495 q 62 603 93 672 q 125 741 190 741 q 255 741 275 689 z"},"j":{"x_min":0,"x_max":246,"ha":246,"o":"m 95 870 l 168 870 l 168 800 l 95 800 z m 143 -90 q 132 -99 121 -104 q 109 -109 84 -109 q 59 -109 44 -106 l 42 -106 l 42 -54 q 52 -56 61 -56 q 69 -56 77 -54 q 95 -51 95 -21 l 95 732 l 167 732 l 167 -17 q 167 -71 143 -90 z"},"i":{"x_min":0,"x_max":231,"ha":231,"o":"m 79 732 l 152 732 l 152 0 l 79 0 z m 79 870 l 152 870 l 152 800 l 79 800 z"},"y":{"x_min":0,"x_max":358,"ha":358,"o":"m 264 732 l 337 732 l 220 1 q 209 -74 194 -92 q 180 -110 161 -113 q 143 -116 124 -116 l 63 -116 l 63 -54 l 90 -54 q 143 -54 150 -48 q 157 -42 157 -29 q 157 -16 156 -7 q 154 1 152 19 l 30 732 l 103 732 l 161 345 l 185 146 l 191 146 l 212 345 z"},"@":{"x_min":0,"x_max":647,"ha":647,"o":"m 414 519 q 368 583 319 583 q 282 583 259 538 q 235 493 235 400 q 235 307 258 269 q 281 231 322 231 q 363 231 388 270 q 414 310 414 371 z m 502 241 q 548 241 548 423 q 548 545 542 593 q 514 812 354 812 q 238 812 180 737 q 106 642 106 412 q 106 138 200 64 q 245 29 307 29 q 368 29 415 43 l 423 -12 q 354 -26 316 -26 q 44 -26 44 408 q 44 410 44 411 q 44 673 142 785 q 214 870 349 870 q 350 870 351 870 q 606 870 606 444 q 606 259 550 205 q 529 185 502 185 q 475 185 454 217 q 433 249 427 286 q 418 238 390 207 q 361 176 330 176 q 269 176 226 226 q 183 275 183 388 q 183 501 214 564 q 246 626 305 626 q 346 626 375 605 q 405 583 417 555 l 432 614 l 467 614 l 467 336 q 467 288 475 265 q 483 241 502 241 z"},".":{"x_min":0,"x_max":260,"ha":260,"o":"m 85 80 l 160 80 l 160 0 l 85 0 z"},"p":{"x_min":0,"x_max":426,"ha":426,"o":"m 291 518 q 291 604 284 625 q 277 646 267 662 q 257 677 235 677 q 212 677 202 674 q 175 667 163 632 q 151 597 151 517 l 151 226 q 151 133 166 94 q 181 56 222 56 q 264 56 277 94 q 291 132 291 229 z m 151 676 q 177 738 248 738 q 298 738 323 705 q 348 672 356 620 q 364 568 364 495 l 364 232 q 364 230 364 229 q 364 90 328 41 q 292 -9 229 -9 q 204 -9 182 9 q 161 27 151 53 l 151 -129 l 78 -129 l 78 732 l 151 732 z"},"X":{"x_min":0,"x_max":368,"ha":368,"o":"m 224 417 l 331 0 l 266 0 l 180 332 l 97 0 l 36 0 l 150 449 l 43 859 l 110 859 l 193 538 l 272 859 l 333 859 z"},"*":{"x_min":0,"x_max":469,"ha":469,"o":"m 202 868 l 267 868 l 257 737 l 367 821 l 400 764 l 278 700 l 400 631 l 367 574 l 257 661 l 267 528 l 202 528 l 214 663 l 105 579 l 73 636 l 191 700 l 69 759 l 102 816 l 214 736 z"},"Y":{"x_min":0,"x_max":392,"ha":392,"o":"m 305 859 l 380 859 l 240 377 l 240 0 l 167 0 l 167 377 l 12 859 l 85 859 l 203 479 l 204 479 z"},"c":{"x_min":0,"x_max":386,"ha":386,"o":"m 62 502 q 62 624 87 672 q 111 720 152 733 q 176 741 217 741 q 258 741 292 719 q 314 704 328 663 q 342 621 342 498 l 342 475 l 268 475 l 268 520 q 268 605 262 630 q 251 674 208 674 q 155 674 142 613 q 135 580 135 516 l 135 222 q 135 123 143 104 q 150 85 158 76 q 172 58 207 58 q 243 58 255 89 q 267 120 268 157 q 268 193 268 219 l 268 274 l 342 274 l 342 252 q 342 143 334 102 q 315 -9 211 -9 q 122 -9 93 46 q 73 83 68 129 q 62 176 62 250 z"},"!":{"x_min":0,"x_max":264,"ha":264,"o":"m 85 99 l 176 99 l 176 0 l 85 0 z m 86 859 l 178 859 l 146 180 l 117 180 z"},"/":{"x_min":0,"x_max":363,"ha":363,"o":"m 263 863 l 329 863 l 108 0 l 43 0 z"},"[":{"x_min":0,"x_max":373,"ha":373,"o":"m 124 860 l 301 860 l 301 804 l 196 804 l 196 56 l 301 56 l 301 0 l 124 0 z"},"6":{"x_min":0,"x_max":364,"ha":364,"o":"m 266 267 q 266 389 252 433 q 238 478 199 478 q 161 478 138 465 q 115 453 114 452 l 114 246 q 114 128 126 96 q 138 64 160 57 q 173 52 197 52 q 222 52 237 66 q 252 80 259 114 q 266 149 266 218 z m 114 495 q 146 538 201 538 q 277 538 308 480 q 339 423 339 273 l 339 216 q 339 104 308 47 q 277 -10 193 -10 q 109 -10 75 47 q 42 104 42 247 l 42 617 q 42 726 54 769 q 67 812 84 831 q 119 869 187 869 q 255 869 288 829 q 321 790 322 627 l 322 611 l 248 611 l 248 626 q 248 742 239 770 q 229 799 211 805 q 201 808 184 808 q 130 808 121 748 q 114 706 114 613 z"},"r":{"x_min":0,"x_max":301,"ha":301,"o":"m 276 741 q 278 741 278 726 q 278 710 277 694 l 277 679 q 239 679 209 664 q 180 648 151 608 l 151 0 l 79 0 l 79 732 l 151 732 l 151 651 q 164 694 196 718 q 228 741 276 741 z"},"2":{"x_min":0,"x_max":364,"ha":364,"o":"m 58 636 q 58 759 91 814 q 125 869 195 869 q 264 869 293 815 q 322 760 322 635 q 322 509 266 384 q 241 330 215 279 q 148 149 132 59 l 311 59 l 311 0 l 59 0 l 59 45 q 59 45 59 46 q 59 104 128 248 q 156 307 186 371 q 255 523 255 625 q 255 727 240 768 q 226 808 193 808 q 161 808 146 767 q 131 726 131 634 l 131 520 l 58 520 z"},"{":{"x_min":0,"x_max":390,"ha":390,"o":"m 274 870 l 304 870 l 304 803 q 270 803 258 795 q 246 788 241 770 q 236 751 236 698 l 236 578 q 236 478 224 453 q 212 428 185 416 q 173 411 152 405 q 190 394 204 382 q 217 370 222 360 q 236 333 236 232 l 236 112 q 236 28 253 18 q 270 8 304 8 l 304 -59 l 274 -59 q 209 -59 186 -25 q 163 10 163 106 l 163 240 q 163 318 153 335 q 143 352 127 354 q 111 356 95 356 l 95 455 q 140 455 150 471 q 161 488 162 515 q 163 542 163 570 l 163 705 q 163 801 186 835 q 209 870 274 870 z"},"9":{"x_min":0,"x_max":364,"ha":364,"o":"m 255 613 q 255 725 244 759 q 233 793 213 802 q 201 807 186 807 q 152 807 138 783 q 123 760 119 719 q 116 679 116 614 l 116 590 q 116 460 127 425 q 138 391 160 383 q 172 379 199 379 q 226 379 255 392 z m 42 611 q 42 717 50 746 q 57 775 65 800 q 74 826 104 847 q 134 869 192 869 q 250 869 285 831 q 319 793 325 705 q 328 665 328 612 l 328 265 q 328 129 314 81 q 299 32 271 11 q 242 -10 202 -10 q 162 -10 139 0 q 95 19 78 78 q 62 137 62 248 l 132 248 l 132 236 q 133 112 143 85 q 153 58 174 53 q 184 50 200 50 q 234 50 245 77 q 255 104 255 181 l 255 348 q 230 323 188 323 q 146 323 122 335 q 73 358 58 422 q 42 486 42 599 z"}," ":{"x_min":0,"x_max":165,"ha":165,"o":""},"I":{"x_min":0,"x_max":246,"ha":246,"o":"m 87 859 l 160 859 l 160 0 l 87 0 z"},"H":{"x_min":0,"x_max":459,"ha":459,"o":"m 308 859 l 381 859 l 381 0 l 308 0 l 308 433 l 151 433 l 151 0 l 78 0 l 78 859 l 151 859 l 151 487 l 308 487 z"},"4":{"x_min":0,"x_max":364,"ha":364,"o":"m 219 229 l 219 697 l 91 229 z m 217 860 l 288 860 l 288 229 l 363 229 l 363 172 l 288 172 l 288 0 l 219 0 l 219 172 l 25 172 l 25 219 z"},"~":{"x_min":0,"x_max":545,"ha":545,"o":"m 478 536 q 447 417 377 417 q 344 417 269 436 q 193 456 167 456 q 141 456 122 410 l 59 447 q 97 538 164 538 q 191 538 269 518 q 346 499 359 499 q 392 503 408 557 z"},"D":{"x_min":0,"x_max":441,"ha":441,"o":"m 303 622 q 303 716 282 757 q 260 799 214 799 l 150 799 l 150 62 l 210 62 q 271 62 289 118 q 304 163 304 253 z m 78 859 l 210 859 q 326 859 357 765 q 376 709 376 614 l 376 246 q 376 112 338 56 q 300 0 207 0 l 78 0 z"},"^":{"x_min":0,"x_max":503,"ha":503,"o":"m 201 732 l 301 732 l 419 282 l 346 282 l 251 678 l 157 282 l 83 282 z"},"0":{"x_min":0,"x_max":364,"ha":364,"o":"m 264 648 q 264 732 244 771 q 225 809 182 809 q 139 809 120 771 q 102 733 102 648 l 102 229 q 102 135 120 92 q 139 50 182 50 q 225 50 244 92 q 264 135 264 229 z m 29 643 q 29 762 65 816 q 102 870 183 870 q 264 870 300 816 q 336 762 336 643 l 336 232 q 336 105 300 47 q 263 -10 182 -10 q 102 -10 65 47 q 29 105 29 232 z"},"F":{"x_min":0,"x_max":337,"ha":337,"o":"m 78 859 l 304 859 l 304 803 l 150 803 l 150 491 l 295 491 l 295 433 l 150 433 l 150 0 l 78 0 z"},"`":{"x_min":0,"x_max":317,"ha":317,"o":"m 66 7 l 66 85 l 229 -5 l 229 -39 z"},"k":{"x_min":0,"x_max":390,"ha":390,"o":"m 79 871 l 151 871 l 151 371 l 313 732 l 386 732 l 219 369 l 395 0 l 318 0 l 151 362 l 151 0 l 79 0 z"},"u":{"x_min":0,"x_max":451,"ha":451,"o":"m 146 143 q 146 58 221 58 q 257 58 279 82 q 300 106 300 148 l 300 732 l 373 732 l 373 0 l 300 0 l 300 73 q 291 40 260 15 q 230 -10 190 -10 q 150 -10 112 23 q 74 56 74 139 l 74 732 l 146 732 z"},"]":{"x_min":0,"x_max":373,"ha":373,"o":"m 96 860 l 272 860 l 272 0 l 96 0 l 96 56 l 200 56 l 200 804 l 96 804 z"},"U":{"x_min":0,"x_max":445,"ha":445,"o":"m 301 859 l 374 859 l 374 221 q 374 100 343 45 q 312 -10 223 -10 q 134 -10 103 45 q 71 100 71 221 l 71 859 l 144 859 l 144 223 q 144 134 152 104 q 167 50 220 50 q 264 50 282 75 q 301 100 301 223 z"},"o":{"x_min":0,"x_max":413,"ha":413,"o":"m 277 514 q 277 640 244 666 q 229 677 209 677 q 153 677 143 615 q 135 577 135 514 l 135 226 q 135 118 154 87 q 172 55 212 55 q 252 55 265 100 q 277 145 277 226 z m 62 497 q 62 624 86 672 q 110 720 151 733 q 176 741 206 741 q 330 741 345 607 q 350 561 350 497 l 350 251 q 350 165 346 140 q 343 114 339 96 q 320 -9 204 -9 q 156 -9 128 11 q 74 48 66 147 q 62 191 62 251 z"},"N":{"x_min":0,"x_max":474,"ha":474,"o":"m 333 859 l 396 859 l 396 0 l 339 0 l 142 647 l 146 415 l 146 0 l 78 0 l 78 859 l 129 859 l 340 195 l 333 491 z"},"+":{"x_min":0,"x_max":395,"ha":395,"o":"m 167 590 l 225 590 l 225 463 l 339 463 l 339 411 l 225 411 l 225 281 l 167 281 l 167 411 l 55 411 l 55 463 l 167 463 z"},"G":{"x_min":0,"x_max":434,"ha":434,"o":"m 65 608 q 65 741 92 793 q 130 870 217 870 q 273 870 303 848 q 333 826 342 800 q 358 752 362 708 q 365 665 365 609 l 365 537 l 291 537 l 291 670 q 291 743 276 777 q 261 811 218 811 q 174 811 156 767 q 138 723 138 616 l 138 265 q 138 144 154 97 q 169 50 215 50 q 261 50 277 97 q 292 145 292 264 l 292 373 l 219 373 l 219 435 l 365 435 l 365 0 l 317 0 l 309 50 q 291 20 267 5 q 242 -10 204 -10 q 131 -10 98 53 q 65 117 65 260 z"},"q":{"x_min":0,"x_max":419,"ha":419,"o":"m 275 506 q 275 620 256 648 q 237 676 199 676 q 162 676 148 638 q 135 600 135 503 l 135 213 q 135 112 150 84 q 166 56 198 56 q 229 56 242 68 q 256 80 266 107 q 275 135 275 215 z m 62 495 q 62 619 82 667 q 101 715 134 729 q 152 737 178 738 q 250 738 276 674 l 276 732 l 349 732 l 349 -129 l 276 -129 l 276 52 q 265 26 244 9 q 222 -9 190 -9 q 157 -9 130 9 q 62 54 62 234 z"},"d":{"x_min":0,"x_max":426,"ha":426,"o":"m 277 506 q 277 601 262 638 q 248 676 207 676 q 165 676 151 637 q 137 599 137 503 l 137 213 q 137 112 153 84 q 168 56 200 56 q 231 56 244 67 q 258 79 267 106 q 277 133 277 212 z m 276 871 l 350 871 l 350 0 l 276 0 l 276 56 q 251 -5 179 -5 q 98 -5 76 92 q 63 145 63 235 l 63 492 q 63 640 99 690 q 134 741 199 741 q 224 741 245 723 q 266 706 276 680 z"},"1":{"x_min":0,"x_max":278,"ha":278,"o":"m 153 860 l 197 860 l 197 0 l 124 0 l 124 749 q 107 729 77 718 q 47 707 18 707 l 18 752 q 59 758 96 786 q 134 814 153 860 z"},"5":{"x_min":0,"x_max":364,"ha":364,"o":"m 66 859 l 291 859 l 291 793 l 132 793 l 132 560 q 139 574 158 585 q 177 596 197 596 q 216 596 234 591 q 272 579 291 529 q 309 480 309 375 l 309 233 q 309 120 297 78 q 285 35 270 20 q 241 -10 184 -10 q 54 -10 54 142 l 54 224 l 128 224 l 128 128 q 128 50 184 50 q 240 50 240 134 l 240 424 q 240 481 228 507 q 215 533 188 533 q 160 533 143 508 q 126 482 126 434 l 66 444 z"}}}
